<svg width="620" height="260" viewBox="0 0 620 260" fill="none" xmlns="http://www.w3.org/2000/svg">
<rect x="60" width="20" height="20" fill="#1E2A21"/>
<rect x="60" y="240" width="20" height="20" fill="#1E2A21"/>
<rect x="60" y="220" width="20" height="20" fill="#A42A36"/>
<rect x="40" y="200" width="20" height="20" fill="#CB3244"/>
<rect x="20" y="180" width="20" height="20" fill="#F27D8A"/>
<rect x="20" y="120" width="20" height="20" fill="#F27D8A"/>
<rect x="20" y="160" width="20" height="20" fill="#F27D8A"/>
<rect x="20" y="100" width="20" height="20" fill="#F27D8A"/>
<rect x="20" y="140" width="20" height="20" fill="#F27D8A"/>
<rect x="20" y="80" width="20" height="20" fill="#F27D8A"/>
<rect x="20" y="60" width="20" height="20" fill="#F27D8A"/>
<rect x="40" y="40" width="20" height="20" fill="#F27D8A"/>
<rect x="40" y="60" width="20" height="20" fill="#E24A5B"/>
<rect x="40" y="100" width="20" height="20" fill="#E24A5B"/>
<rect x="40" y="80" width="20" height="20" fill="#EEAAB5"/>
<rect x="60" y="60" width="20" height="20" fill="#EEAAB5"/>
<rect x="60" y="80" width="20" height="20" fill="#E4374A"/>
<rect x="60" y="120" width="20" height="20" fill="#E4374A"/>
<rect x="60" y="160" width="20" height="20" fill="#E4374A"/>
<rect x="60" y="100" width="20" height="20" fill="#E4374A"/>
<rect x="60" y="140" width="20" height="20" fill="#E4374A"/>
<rect x="60" y="180" width="20" height="20" fill="#E4374A"/>
<rect x="80" y="60" width="20" height="20" fill="#E4374A"/>
<rect x="140" y="60" width="20" height="20" fill="#1E2A21"/>
<rect x="240" y="60" width="20" height="20" fill="#E4374A"/>
<rect x="340" y="60" width="20" height="20" fill="#1E2A21"/>
<rect x="440" y="60" width="20" height="20" fill="#1E2A21"/>
<rect x="500" y="60" width="20" height="20" fill="#1E2A21"/>
<rect x="80" y="80" width="20" height="20" fill="#E4374A"/>
<rect x="140" y="80" width="20" height="20" fill="#E4374A"/>
<rect x="240" y="80" width="20" height="20" fill="#E4374A"/>
<rect x="340" y="80" width="20" height="20" fill="#1E2A21"/>
<rect x="440" y="80" width="20" height="20" fill="#1E2A21"/>
<rect x="500" y="80" width="20" height="20" fill="#E4374A"/>
<rect x="80" y="120" width="20" height="20" fill="#E4374A"/>
<rect x="140" y="120" width="20" height="20" fill="#1E2A21"/>
<rect x="240" y="120" width="20" height="20" fill="#1E2A21"/>
<rect x="340" y="120" width="20" height="20" fill="#1E2A21"/>
<rect x="440" y="120" width="20" height="20" fill="#1E2A21"/>
<rect x="500" y="120" width="20" height="20" fill="#E4374A"/>
<rect x="80" y="160" width="20" height="20" fill="#E4374A"/>
<rect x="140" y="160" width="20" height="20" fill="#E4374A"/>
<rect x="240" y="160" width="20" height="20" fill="#E4374A"/>
<rect x="340" y="160" width="20" height="20" fill="#1E2A21"/>
<rect x="440" y="160" width="20" height="20" fill="#1E2A21"/>
<rect x="500" y="160" width="20" height="20" fill="#E4374A"/>
<rect x="500" y="180" width="20" height="20" fill="#E4374A"/>
<rect x="80" y="100" width="20" height="20" fill="#E4374A"/>
<rect x="140" y="100" width="20" height="20" fill="#E4374A"/>
<rect x="240" y="100" width="20" height="20" fill="#1E2A21"/>
<rect x="340" y="100" width="20" height="20" fill="#1E2A21"/>
<rect x="440" y="100" width="20" height="20" fill="#1E2A21"/>
<rect x="500" y="100" width="20" height="20" fill="#E4374A"/>
<rect x="80" y="140" width="20" height="20" fill="#E4374A"/>
<rect x="140" y="140" width="20" height="20" fill="#E4374A"/>
<rect x="240" y="140" width="20" height="20" fill="#1E2A21"/>
<rect x="340" y="140" width="20" height="20" fill="#1E2A21"/>
<rect x="440" y="140" width="20" height="20" fill="#1E2A21"/>
<rect x="500" y="140" width="20" height="20" fill="#E4374A"/>
<rect x="80" y="180" width="20" height="20" fill="#E4374A"/>
<rect x="140" y="180" width="20" height="20" fill="#1E2A21"/>
<rect x="240" y="180" width="20" height="20" fill="#E4374A"/>
<rect x="340" y="180" width="20" height="20" fill="#1E2A21"/>
<rect x="440" y="180" width="20" height="20" fill="#1E2A21"/>
<rect x="100" y="60" width="20" height="20" fill="#1E2A21"/>
<rect x="200" y="60" width="20" height="20" fill="#1E2A21"/>
<rect x="300" y="60" width="20" height="20" fill="#1E2A21"/>
<rect x="400" y="60" width="20" height="20" fill="#1E2A21"/>
<rect x="160" y="60" width="20" height="20" fill="#1E2A21"/>
<rect x="260" y="60" width="20" height="20" fill="#E4374A"/>
<rect x="360" y="60" width="20" height="20" fill="#1E2A21"/>
<rect x="460" y="60" width="20" height="20" fill="#1E2A21"/>
<rect x="520" y="60" width="20" height="20" fill="#E4374A"/>
<rect x="120" y="60" width="20" height="20" fill="#1E2A21"/>
<rect x="220" y="60" width="20" height="20" fill="#1E2A21"/>
<rect x="320" y="60" width="20" height="20" fill="#E4374A"/>
<rect x="420" y="60" width="20" height="20" fill="#1E2A21"/>
<rect x="180" y="60" width="20" height="20" fill="#E4374A"/>
<rect x="280" y="60" width="20" height="20" fill="#1E2A21"/>
<rect x="380" y="60" width="20" height="20" fill="#E4374A"/>
<rect x="480" y="60" width="20" height="20" fill="#1E2A21"/>
<rect x="540" y="60" width="20" height="20" fill="#E4374A"/>
<rect x="100" y="80" width="20" height="20" fill="#1E2A21"/>
<rect x="200" y="80" width="20" height="20" fill="#E4374A"/>
<rect x="300" y="80" width="20" height="20" fill="#E4374A"/>
<rect x="400" y="80" width="20" height="20" fill="#E4374A"/>
<rect x="160" y="80" width="20" height="20" fill="#E4374A"/>
<rect x="260" y="80" width="20" height="20" fill="#E4374A"/>
<rect x="360" y="80" width="20" height="20" fill="#1E2A21"/>
<rect x="460" y="80" width="20" height="20" fill="#1E2A21"/>
<rect x="520" y="80" width="20" height="20" fill="#E4374A"/>
<rect x="100" y="120" width="20" height="20" fill="#1E2A21"/>
<rect x="200" y="120" width="20" height="20" fill="#E4374A"/>
<rect x="300" y="120" width="20" height="20" fill="#E4374A"/>
<rect x="400" y="120" width="20" height="20" fill="#E4374A"/>
<rect x="160" y="120" width="20" height="20" fill="#1E2A21"/>
<rect x="260" y="120" width="20" height="20" fill="#1E2A21"/>
<rect x="360" y="120" width="20" height="20" fill="#1E2A21"/>
<rect x="460" y="120" width="20" height="20" fill="#1E2A21"/>
<rect x="520" y="120" width="20" height="20" fill="#E4374A"/>
<rect x="100" y="160" width="20" height="20" fill="#1E2A21"/>
<rect x="200" y="160" width="20" height="20" fill="#E4374A"/>
<rect x="300" y="160" width="20" height="20" fill="#E4374A"/>
<rect x="400" y="160" width="20" height="20" fill="#E4374A"/>
<rect x="160" y="160" width="20" height="20" fill="#E4374A"/>
<rect x="260" y="160" width="20" height="20" fill="#E4374A"/>
<rect x="360" y="160" width="20" height="20" fill="#1E2A21"/>
<rect x="460" y="160" width="20" height="20" fill="#1E2A21"/>
<rect x="520" y="160" width="20" height="20" fill="#E4374A"/>
<rect x="520" y="180" width="20" height="20" fill="#E4374A"/>
<rect x="100" y="100" width="20" height="20" fill="#1E2A21"/>
<rect x="200" y="100" width="20" height="20" fill="#E4374A"/>
<rect x="300" y="100" width="20" height="20" fill="#E4374A"/>
<rect x="400" y="100" width="20" height="20" fill="#E4374A"/>
<rect x="160" y="100" width="20" height="20" fill="#E4374A"/>
<rect x="260" y="100" width="20" height="20" fill="#1E2A21"/>
<rect x="360" y="100" width="20" height="20" fill="#1E2A21"/>
<rect x="460" y="100" width="20" height="20" fill="#1E2A21"/>
<rect x="520" y="100" width="20" height="20" fill="#E4374A"/>
<rect x="100" y="140" width="20" height="20" fill="#1E2A21"/>
<rect x="200" y="140" width="20" height="20" fill="#E4374A"/>
<rect x="300" y="140" width="20" height="20" fill="#E4374A"/>
<rect x="400" y="140" width="20" height="20" fill="#E4374A"/>
<rect x="160" y="140" width="20" height="20" fill="#E4374A"/>
<rect x="260" y="140" width="20" height="20" fill="#1E2A21"/>
<rect x="360" y="140" width="20" height="20" fill="#1E2A21"/>
<rect x="460" y="140" width="20" height="20" fill="#1E2A21"/>
<rect x="520" y="140" width="20" height="20" fill="#E4374A"/>
<rect x="100" y="180" width="20" height="20" fill="#1E2A21"/>
<rect x="200" y="180" width="20" height="20" fill="#1E2A21"/>
<rect x="300" y="180" width="20" height="20" fill="#1E2A21"/>
<rect x="400" y="180" width="20" height="20" fill="#E4374A"/>
<rect x="160" y="180" width="20" height="20" fill="#1E2A21"/>
<rect x="260" y="180" width="20" height="20" fill="#E4374A"/>
<rect x="360" y="180" width="20" height="20" fill="#1E2A21"/>
<rect x="460" y="180" width="20" height="20" fill="#1E2A21"/>
<rect x="120" y="80" width="20" height="20" fill="#1E2A21"/>
<rect x="220" y="80" width="20" height="20" fill="#1E2A21"/>
<rect x="320" y="80" width="20" height="20" fill="#E4374A"/>
<rect x="420" y="80" width="20" height="20" fill="#E4374A"/>
<rect x="180" y="80" width="20" height="20" fill="#E4374A"/>
<rect x="280" y="80" width="20" height="20" fill="#1E2A21"/>
<rect x="380" y="80" width="20" height="20" fill="#E4374A"/>
<rect x="480" y="80" width="20" height="20" fill="#E4374A"/>
<rect x="540" y="80" width="20" height="20" fill="#E4374A"/>
<rect x="120" y="120" width="20" height="20" fill="#1E2A21"/>
<rect x="220" y="120" width="20" height="20" fill="#E4374A"/>
<rect x="320" y="120" width="20" height="20" fill="#E4374A"/>
<rect x="420" y="120" width="20" height="20" fill="#E4374A"/>
<rect x="180" y="120" width="20" height="20" fill="#E4374A"/>
<rect x="280" y="120" width="20" height="20" fill="#E4374A"/>
<rect x="380" y="120" width="20" height="20" fill="#E4374A"/>
<rect x="480" y="120" width="20" height="20" fill="#E4374A"/>
<rect x="540" y="120" width="20" height="20" fill="#E4374A"/>
<rect x="120" y="160" width="20" height="20" fill="#1E2A21"/>
<rect x="220" y="160" width="20" height="20" fill="#1E2A21"/>
<rect x="320" y="160" width="20" height="20" fill="#E4374A"/>
<rect x="420" y="160" width="20" height="20" fill="#E4374A"/>
<rect x="180" y="160" width="20" height="20" fill="#E4374A"/>
<rect x="280" y="160" width="20" height="20" fill="#1E2A21"/>
<rect x="380" y="160" width="20" height="20" fill="#E4374A"/>
<rect x="480" y="160" width="20" height="20" fill="#E4374A"/>
<rect x="540" y="160" width="20" height="20" fill="#E4374A"/>
<rect x="120" y="100" width="20" height="20" fill="#1E2A21"/>
<rect x="220" y="100" width="20" height="20" fill="#1E2A21"/>
<rect x="320" y="100" width="20" height="20" fill="#E4374A"/>
<rect x="420" y="100" width="20" height="20" fill="#E4374A"/>
<rect x="180" y="100" width="20" height="20" fill="#E4374A"/>
<rect x="280" y="100" width="20" height="20" fill="#1E2A21"/>
<rect x="380" y="100" width="20" height="20" fill="#E4374A"/>
<rect x="480" y="100" width="20" height="20" fill="#E4374A"/>
<rect x="540" y="100" width="20" height="20" fill="#E4374A"/>
<rect x="120" y="140" width="20" height="20" fill="#1E2A21"/>
<rect x="220" y="140" width="20" height="20" fill="#1E2A21"/>
<rect x="320" y="140" width="20" height="20" fill="#E4374A"/>
<rect x="420" y="140" width="20" height="20" fill="#E4374A"/>
<rect x="180" y="140" width="20" height="20" fill="#E4374A"/>
<rect x="280" y="140" width="20" height="20" fill="#1E2A21"/>
<rect x="380" y="140" width="20" height="20" fill="#E4374A"/>
<rect x="480" y="140" width="20" height="20" fill="#E4374A"/>
<rect x="540" y="140" width="20" height="20" fill="#E4374A"/>
<rect x="120" y="180" width="20" height="20" fill="#1E2A21"/>
<rect x="220" y="180" width="20" height="20" fill="#1E2A21"/>
<rect x="320" y="180" width="20" height="20" fill="#E4374A"/>
<rect x="420" y="180" width="20" height="20" fill="#E4374A"/>
<rect x="180" y="180" width="20" height="20" fill="#E4374A"/>
<rect x="280" y="180" width="20" height="20" fill="#1E2A21"/>
<rect x="380" y="180" width="20" height="20" fill="#E4374A"/>
<rect x="480" y="180" width="20" height="20" fill="#E4374A"/>
<rect x="80" y="40" width="20" height="20" fill="#EEAAB5"/>
<rect x="40" y="140" width="20" height="20" fill="#E24A5B"/>
<rect x="40" y="120" width="20" height="20" fill="#E24A5B"/>
<rect x="40" y="160" width="20" height="20" fill="#E24A5B"/>
<rect x="40" y="180" width="20" height="20" fill="#E24A5B"/>
<rect x="60" y="40" width="20" height="20" fill="#E24A5B"/>
<rect x="100" y="40" width="20" height="20" fill="#E24A5B"/>
<rect x="180" y="40" width="20" height="20" fill="#E24A5B"/>
<rect x="260" y="40" width="20" height="20" fill="#E24A5B"/>
<rect x="340" y="40" width="20" height="20" fill="#E24A5B"/>
<rect x="420" y="40" width="20" height="20" fill="#E24A5B"/>
<rect x="120" y="40" width="20" height="20" fill="#E24A5B"/>
<rect x="200" y="40" width="20" height="20" fill="#E24A5B"/>
<rect x="280" y="40" width="20" height="20" fill="#E24A5B"/>
<rect x="360" y="40" width="20" height="20" fill="#E24A5B"/>
<rect x="440" y="40" width="20" height="20" fill="#E24A5B"/>
<rect x="500" y="40" width="20" height="20" fill="#E24A5B"/>
<rect x="140" y="40" width="20" height="20" fill="#E24A5B"/>
<rect x="220" y="40" width="20" height="20" fill="#E24A5B"/>
<rect x="300" y="40" width="20" height="20" fill="#E24A5B"/>
<rect x="380" y="40" width="20" height="20" fill="#E24A5B"/>
<rect x="460" y="40" width="20" height="20" fill="#E24A5B"/>
<rect x="520" y="40" width="20" height="20" fill="#E24A5B"/>
<rect x="160" y="40" width="20" height="20" fill="#E24A5B"/>
<rect x="240" y="40" width="20" height="20" fill="#E24A5B"/>
<rect x="320" y="40" width="20" height="20" fill="#E24A5B"/>
<rect x="400" y="40" width="20" height="20" fill="#E24A5B"/>
<rect x="480" y="40" width="20" height="20" fill="#E24A5B"/>
<rect x="540" y="40" width="20" height="20" fill="#E24A5B"/>
<rect x="60" y="20" width="20" height="20" fill="#F27D8A"/>
<rect x="160" y="20" width="20" height="20" fill="#EEAAB5"/>
<rect x="260" y="20" width="20" height="20" fill="#EEAAB5"/>
<rect x="360" y="20" width="20" height="20" fill="#EEAAB5"/>
<rect x="460" y="20" width="20" height="20" fill="#EEAAB5"/>
<rect x="80" y="20" width="20" height="20" fill="#F27D8A"/>
<rect x="180" y="20" width="20" height="20" fill="#EEAAB5"/>
<rect x="280" y="20" width="20" height="20" fill="#EEAAB5"/>
<rect x="380" y="20" width="20" height="20" fill="#EEAAB5"/>
<rect x="480" y="20" width="20" height="20" fill="#EEAAB5"/>
<rect x="100" y="20" width="20" height="20" fill="#F27D8A"/>
<rect x="200" y="20" width="20" height="20" fill="#EEAAB5"/>
<rect x="300" y="20" width="20" height="20" fill="#EEAAB5"/>
<rect x="400" y="20" width="20" height="20" fill="#F27D8A"/>
<rect x="500" y="20" width="20" height="20" fill="#F27D8A"/>
<rect x="120" y="20" width="20" height="20" fill="#F27D8A"/>
<rect x="220" y="20" width="20" height="20" fill="#EEAAB5"/>
<rect x="320" y="20" width="20" height="20" fill="#EEAAB5"/>
<rect x="420" y="20" width="20" height="20" fill="#EEAAB5"/>
<rect x="520" y="20" width="20" height="20" fill="#EEAAB5"/>
<rect x="140" y="20" width="20" height="20" fill="#EEAAB5"/>
<rect x="240" y="20" width="20" height="20" fill="#EEAAB5"/>
<rect x="340" y="20" width="20" height="20" fill="#EEAAB5"/>
<rect x="440" y="20" width="20" height="20" fill="#EEAAB5"/>
<rect x="540" y="20" width="20" height="20" fill="#F27D8A"/>
<rect x="40" y="20" width="20" height="20" fill="#1E2A21"/>
<rect x="20" y="40" width="20" height="20" fill="#1E2A21"/>
<rect y="60" width="20" height="20" fill="#1E2A21"/>
<rect x="600" y="60" width="20" height="20" fill="#1E2A21"/>
<rect y="140" width="20" height="20" fill="#1E2A21"/>
<rect x="600" y="140" width="20" height="20" fill="#1E2A21"/>
<rect y="100" width="20" height="20" fill="#1E2A21"/>
<rect x="600" y="100" width="20" height="20" fill="#1E2A21"/>
<rect y="180" width="20" height="20" fill="#1E2A21"/>
<rect x="600" y="180" width="20" height="20" fill="#1E2A21"/>
<rect x="580" y="200" width="20" height="20" fill="#1E2A21"/>
<rect x="560" y="220" width="20" height="20" fill="#1E2A21"/>
<rect x="20" y="200" width="20" height="20" fill="#1E2A21"/>
<rect x="40" y="220" width="20" height="20" fill="#1E2A21"/>
<rect y="80" width="20" height="20" fill="#1E2A21"/>
<rect x="600" y="80" width="20" height="20" fill="#1E2A21"/>
<rect y="160" width="20" height="20" fill="#1E2A21"/>
<rect x="600" y="160" width="20" height="20" fill="#1E2A21"/>
<rect y="120" width="20" height="20" fill="#1E2A21"/>
<rect x="600" y="120" width="20" height="20" fill="#1E2A21"/>
<rect x="260" width="20" height="20" fill="#1E2A21"/>
<rect x="260" y="240" width="20" height="20" fill="#1E2A21"/>
<rect x="260" y="220" width="20" height="20" fill="#A42A36"/>
<rect x="240" y="200" width="20" height="20" fill="#CB3244"/>
<rect x="160" width="20" height="20" fill="#1E2A21"/>
<rect x="160" y="240" width="20" height="20" fill="#1E2A21"/>
<rect x="160" y="220" width="20" height="20" fill="#A42A36"/>
<rect x="140" y="200" width="20" height="20" fill="#CB3244"/>
<rect x="360" width="20" height="20" fill="#1E2A21"/>
<rect x="360" y="240" width="20" height="20" fill="#1E2A21"/>
<rect x="360" y="220" width="20" height="20" fill="#A42A36"/>
<rect x="340" y="200" width="20" height="20" fill="#CB3244"/>
<rect x="460" width="20" height="20" fill="#1E2A21"/>
<rect x="460" y="240" width="20" height="20" fill="#1E2A21"/>
<rect x="460" y="220" width="20" height="20" fill="#A42A36"/>
<rect x="440" y="200" width="20" height="20" fill="#CB3244"/>
<rect x="140" width="20" height="20" fill="#1E2A21"/>
<rect x="140" y="240" width="20" height="20" fill="#1E2A21"/>
<rect x="140" y="220" width="20" height="20" fill="#A42A36"/>
<rect x="120" y="200" width="20" height="20" fill="#CB3244"/>
<rect x="340" width="20" height="20" fill="#1E2A21"/>
<rect x="340" y="240" width="20" height="20" fill="#1E2A21"/>
<rect x="340" y="220" width="20" height="20" fill="#A42A36"/>
<rect x="320" y="200" width="20" height="20" fill="#CB3244"/>
<rect x="240" width="20" height="20" fill="#1E2A21"/>
<rect x="240" y="240" width="20" height="20" fill="#1E2A21"/>
<rect x="240" y="220" width="20" height="20" fill="#A42A36"/>
<rect x="220" y="200" width="20" height="20" fill="#CB3244"/>
<rect x="440" width="20" height="20" fill="#1E2A21"/>
<rect x="440" y="240" width="20" height="20" fill="#1E2A21"/>
<rect x="440" y="220" width="20" height="20" fill="#A42A36"/>
<rect x="420" y="200" width="20" height="20" fill="#CB3244"/>
<rect x="540" width="20" height="20" fill="#1E2A21"/>
<rect x="560" y="20" width="20" height="20" fill="#1E2A21"/>
<rect x="580" y="40" width="20" height="20" fill="#1E2A21"/>
<rect x="540" y="240" width="20" height="20" fill="#1E2A21"/>
<rect x="540" y="220" width="20" height="20" fill="#A42A36"/>
<rect x="520" y="200" width="20" height="20" fill="#CB3244"/>
<rect x="540" y="200" width="20" height="20" fill="#CB3244"/>
<rect x="560" y="160" width="20" height="20" fill="#CB3244"/>
<rect x="560" y="120" width="20" height="20" fill="#CB3244"/>
<rect x="560" y="80" width="20" height="20" fill="#CB3244"/>
<rect x="540" y="180" width="20" height="20" fill="#CB3244"/>
<rect x="560" y="140" width="20" height="20" fill="#CB3244"/>
<rect x="560" y="100" width="20" height="20" fill="#CB3244"/>
<rect x="560" y="60" width="20" height="20" fill="#CB3244"/>
<rect x="560" y="40" width="20" height="20" fill="#CB3244"/>
<rect x="560" y="180" width="20" height="20" fill="#CB3244"/>
<rect x="560" y="200" width="20" height="20" fill="#A42A36"/>
<rect x="580" y="180" width="20" height="20" fill="#A42A36"/>
<rect x="580" y="160" width="20" height="20" fill="#A42A36"/>
<rect x="580" y="140" width="20" height="20" fill="#A42A36"/>
<rect x="580" y="120" width="20" height="20" fill="#A42A36"/>
<rect x="580" y="100" width="20" height="20" fill="#A42A36"/>
<rect x="580" y="80" width="20" height="20" fill="#A42A36"/>
<rect x="580" y="60" width="20" height="20" fill="#A42A36"/>
<rect x="100" width="20" height="20" fill="#1E2A21"/>
<rect x="100" y="240" width="20" height="20" fill="#1E2A21"/>
<rect x="100" y="220" width="20" height="20" fill="#A42A36"/>
<rect x="80" y="200" width="20" height="20" fill="#CB3244"/>
<rect x="300" width="20" height="20" fill="#1E2A21"/>
<rect x="300" y="240" width="20" height="20" fill="#1E2A21"/>
<rect x="300" y="220" width="20" height="20" fill="#A42A36"/>
<rect x="280" y="200" width="20" height="20" fill="#CB3244"/>
<rect x="200" width="20" height="20" fill="#1E2A21"/>
<rect x="200" y="240" width="20" height="20" fill="#1E2A21"/>
<rect x="200" y="220" width="20" height="20" fill="#A42A36"/>
<rect x="180" y="200" width="20" height="20" fill="#CB3244"/>
<rect x="400" width="20" height="20" fill="#1E2A21"/>
<rect x="400" y="240" width="20" height="20" fill="#1E2A21"/>
<rect x="400" y="220" width="20" height="20" fill="#A42A36"/>
<rect x="380" y="200" width="20" height="20" fill="#CB3244"/>
<rect x="500" width="20" height="20" fill="#1E2A21"/>
<rect x="500" y="240" width="20" height="20" fill="#1E2A21"/>
<rect x="500" y="220" width="20" height="20" fill="#A42A36"/>
<rect x="480" y="200" width="20" height="20" fill="#CB3244"/>
<rect x="80" width="20" height="20" fill="#1E2A21"/>
<rect x="80" y="240" width="20" height="20" fill="#1E2A21"/>
<rect x="80" y="220" width="20" height="20" fill="#A42A36"/>
<rect x="60" y="200" width="20" height="20" fill="#CB3244"/>
<rect x="280" width="20" height="20" fill="#1E2A21"/>
<rect x="280" y="240" width="20" height="20" fill="#1E2A21"/>
<rect x="280" y="220" width="20" height="20" fill="#A42A36"/>
<rect x="260" y="200" width="20" height="20" fill="#CB3244"/>
<rect x="180" width="20" height="20" fill="#1E2A21"/>
<rect x="180" y="240" width="20" height="20" fill="#1E2A21"/>
<rect x="180" y="220" width="20" height="20" fill="#A42A36"/>
<rect x="160" y="200" width="20" height="20" fill="#CB3244"/>
<rect x="380" width="20" height="20" fill="#1E2A21"/>
<rect x="380" y="240" width="20" height="20" fill="#1E2A21"/>
<rect x="380" y="220" width="20" height="20" fill="#A42A36"/>
<rect x="360" y="200" width="20" height="20" fill="#CB3244"/>
<rect x="480" width="20" height="20" fill="#1E2A21"/>
<rect x="480" y="240" width="20" height="20" fill="#1E2A21"/>
<rect x="480" y="220" width="20" height="20" fill="#A42A36"/>
<rect x="460" y="200" width="20" height="20" fill="#CB3244"/>
<rect x="120" width="20" height="20" fill="#1E2A21"/>
<rect x="120" y="240" width="20" height="20" fill="#1E2A21"/>
<rect x="120" y="220" width="20" height="20" fill="#A42A36"/>
<rect x="100" y="200" width="20" height="20" fill="#CB3244"/>
<rect x="320" width="20" height="20" fill="#1E2A21"/>
<rect x="320" y="240" width="20" height="20" fill="#1E2A21"/>
<rect x="320" y="220" width="20" height="20" fill="#A42A36"/>
<rect x="300" y="200" width="20" height="20" fill="#CB3244"/>
<rect x="220" width="20" height="20" fill="#1E2A21"/>
<rect x="220" y="240" width="20" height="20" fill="#1E2A21"/>
<rect x="220" y="220" width="20" height="20" fill="#A42A36"/>
<rect x="200" y="200" width="20" height="20" fill="#CB3244"/>
<rect x="420" width="20" height="20" fill="#1E2A21"/>
<rect x="420" y="240" width="20" height="20" fill="#1E2A21"/>
<rect x="420" y="220" width="20" height="20" fill="#A42A36"/>
<rect x="400" y="200" width="20" height="20" fill="#CB3244"/>
<rect x="520" width="20" height="20" fill="#1E2A21"/>
<rect x="520" y="240" width="20" height="20" fill="#1E2A21"/>
<rect x="520" y="220" width="20" height="20" fill="#A42A36"/>
<rect x="500" y="200" width="20" height="20" fill="#CB3244"/>
</svg>
