<svg width="920" height="260" viewBox="0 0 920 260" fill="none" xmlns="http://www.w3.org/2000/svg">
<rect x="60" y="60" width="20" height="20" fill="#1E2A21"/>
<rect width="20" height="20" transform="matrix(1 0 0 -1 60 200)" fill="#1E2A21"/>
<rect x="860" y="200" width="20" height="20" transform="rotate(-180 860 200)" fill="#1E2A21"/>
<rect x="20" y="100" width="20" height="20" fill="#1E2A21"/>
<rect width="20" height="20" transform="matrix(1 0 0 -1 20 160)" fill="#1E2A21"/>
<rect width="20" height="20" transform="matrix(1 0 0 -1 0 140)" fill="#1E2A21"/>
<rect x="900" y="160" width="20" height="20" transform="rotate(-180 900 160)" fill="#1E2A21"/>
<rect x="820" y="40" width="20" height="20" transform="rotate(-180 820 40)" fill="#1E2A21"/>
<rect x="840" y="60" width="20" height="20" transform="rotate(-180 840 60)" fill="#1E2A21"/>
<rect x="860" y="80" width="20" height="20" transform="rotate(-180 860 80)" fill="#1E2A21"/>
<rect x="880" y="100" width="20" height="20" transform="rotate(-180 880 100)" fill="#1E2A21"/>
<rect x="900" y="120" width="20" height="20" transform="rotate(-180 900 120)" fill="#1E2A21"/>
<rect x="920" y="140" width="20" height="20" transform="rotate(-180 920 140)" fill="#1E2A21"/>
<rect x="80" y="40" width="20" height="20" fill="#1E2A21"/>
<rect width="20" height="20" transform="matrix(1 0 0 -1 80 220)" fill="#1E2A21"/>
<rect x="840" y="220" width="20" height="20" transform="rotate(-180 840 220)" fill="#1E2A21"/>
<rect x="40" y="80" width="20" height="20" fill="#1E2A21"/>
<rect width="20" height="20" transform="matrix(1 0 0 -1 40 180)" fill="#1E2A21"/>
<rect x="880" y="180" width="20" height="20" transform="rotate(-180 880 180)" fill="#1E2A21"/>
<rect x="100" y="20" width="20" height="20" fill="#1E2A21"/>
<rect width="20" height="20" transform="matrix(1 0 0 -1 100 240)" fill="#1E2A21"/>
<rect x="820" y="240" width="20" height="20" transform="rotate(-180 820 240)" fill="#1E2A21"/>
<rect x="120" width="20" height="20" fill="#1E2A21"/>
<rect x="120" y="240" width="20" height="20" fill="#1E2A21"/>
<rect x="120" y="220" width="20" height="20" fill="#2AA33B"/>
<rect x="100" y="200" width="20" height="20" fill="#33C94C"/>
<rect x="100" y="180" width="20" height="20" fill="#46E763"/>
<rect x="80" y="160" width="20" height="20" fill="#46E763"/>
<rect x="60" y="140" width="20" height="20" fill="#46E763"/>
<rect x="80" y="120" width="20" height="20" fill="#46E763"/>
<rect x="40" y="120" width="20" height="20" fill="#46E763"/>
<rect x="100" y="100" width="20" height="20" fill="#46E763"/>
<rect x="60" y="100" width="20" height="20" fill="#46E763"/>
<rect x="120" y="80" width="20" height="20" fill="#46E763"/>
<rect x="140" y="60" width="20" height="20" fill="#46E763"/>
<rect x="80" y="80" width="20" height="20" fill="#46E763"/>
<rect x="100" y="60" width="20" height="20" fill="#46E763"/>
<rect x="120" y="40" width="20" height="20" fill="#46E763"/>
<rect x="80" y="180" width="20" height="20" fill="#33C94C"/>
<rect x="60" y="160" width="20" height="20" fill="#33C94C"/>
<rect x="40" y="140" width="20" height="20" fill="#33C94C"/>
<rect x="20" y="120" width="20" height="20" fill="#79EC89"/>
<rect x="40" y="100" width="20" height="20" fill="#79EC89"/>
<rect x="60" y="80" width="20" height="20" fill="#79EC89"/>
<rect x="80" y="60" width="20" height="20" fill="#79EC89"/>
<rect x="100" y="40" width="20" height="20" fill="#79EC89"/>
<rect x="120" y="60" width="20" height="20" fill="#A9F2B2"/>
<rect x="100" y="80" width="20" height="20" fill="#A9F2B2"/>
<rect x="80" y="100" width="20" height="20" fill="#A9F2B2"/>
<rect x="60" y="120" width="20" height="20" fill="#A9F2B2"/>
<rect x="120" y="20" width="20" height="20" fill="#79EC89"/>
<rect x="440" width="20" height="20" fill="#1E2A21"/>
<rect x="440" y="240" width="20" height="20" fill="#1E2A21"/>
<rect x="440" y="220" width="20" height="20" fill="#2AA33B"/>
<rect x="420" y="200" width="20" height="20" fill="#33C94C"/>
<rect x="420" y="180" width="20" height="20" fill="#1E2A21"/>
<rect x="400" y="160" width="20" height="20" fill="#1E2A21"/>
<rect x="380" y="140" width="20" height="20" fill="#46E763"/>
<rect x="400" y="120" width="20" height="20" fill="#1E2A21"/>
<rect x="420" y="100" width="20" height="20" fill="#1E2A21"/>
<rect x="440" y="80" width="20" height="20" fill="#1E2A21"/>
<rect x="460" y="60" width="20" height="20" fill="#1E2A21"/>
<rect x="440" y="40" width="20" height="20" fill="#46E763"/>
<rect x="440" y="20" width="20" height="20" fill="#ACF3B4"/>
<rect x="280" width="20" height="20" fill="#1E2A21"/>
<rect x="280" y="240" width="20" height="20" fill="#1E2A21"/>
<rect x="280" y="220" width="20" height="20" fill="#2AA33B"/>
<rect x="260" y="200" width="20" height="20" fill="#33C94C"/>
<rect x="260" y="180" width="20" height="20" fill="#46E763"/>
<rect x="240" y="160" width="20" height="20" fill="#46E763"/>
<rect x="220" y="140" width="20" height="20" fill="#1D2820"/>
<rect x="240" y="120" width="20" height="20" fill="#46E763"/>
<rect x="260" y="100" width="20" height="20" fill="#46E763"/>
<rect x="280" y="80" width="20" height="20" fill="#46E763"/>
<rect x="300" y="60" width="20" height="20" fill="#1E2A21"/>
<rect x="280" y="40" width="20" height="20" fill="#46E763"/>
<rect x="280" y="20" width="20" height="20" fill="#ACF3B4"/>
<rect x="600" width="20" height="20" fill="#1E2A21"/>
<rect x="600" y="240" width="20" height="20" fill="#1E2A21"/>
<rect x="600" y="220" width="20" height="20" fill="#2AA33B"/>
<rect x="580" y="200" width="20" height="20" fill="#33C94C"/>
<rect x="580" y="180" width="20" height="20" fill="#46E763"/>
<rect x="560" y="160" width="20" height="20" fill="#1E2A21"/>
<rect x="540" y="140" width="20" height="20" fill="#1E2A21"/>
<rect x="560" y="120" width="20" height="20" fill="#1E2A21"/>
<rect x="580" y="100" width="20" height="20" fill="#46E763"/>
<rect x="600" y="80" width="20" height="20" fill="#46E763"/>
<rect x="620" y="60" width="20" height="20" fill="#46E763"/>
<rect x="600" y="40" width="20" height="20" fill="#46E763"/>
<rect x="600" y="20" width="20" height="20" fill="#ACF3B4"/>
<rect x="200" width="20" height="20" fill="#1E2A21"/>
<rect x="200" y="240" width="20" height="20" fill="#1E2A21"/>
<rect x="200" y="220" width="20" height="20" fill="#2AA33B"/>
<rect x="180" y="200" width="20" height="20" fill="#33C94C"/>
<rect x="180" y="180" width="20" height="20" fill="#1D2820"/>
<rect x="160" y="160" width="20" height="20" fill="#1D2820"/>
<rect x="140" y="140" width="20" height="20" fill="#46E763"/>
<rect x="160" y="120" width="20" height="20" fill="#46E763"/>
<rect x="180" y="100" width="20" height="20" fill="#46E763"/>
<rect x="200" y="80" width="20" height="20" fill="#46E763"/>
<rect x="220" y="60" width="20" height="20" fill="#46E763"/>
<rect x="200" y="40" width="20" height="20" fill="#46E763"/>
<rect x="200" y="20" width="20" height="20" fill="#79EC89"/>
<rect x="520" width="20" height="20" fill="#1E2A21"/>
<rect x="520" y="240" width="20" height="20" fill="#1E2A21"/>
<rect x="520" y="220" width="20" height="20" fill="#2AA33B"/>
<rect x="500" y="200" width="20" height="20" fill="#33C94C"/>
<rect x="500" y="180" width="20" height="20" fill="#1E2A21"/>
<rect x="480" y="160" width="20" height="20" fill="#1E2A21"/>
<rect x="460" y="140" width="20" height="20" fill="#1E2A21"/>
<rect x="480" y="120" width="20" height="20" fill="#1E2A21"/>
<rect x="500" y="100" width="20" height="20" fill="#1E2A21"/>
<rect x="520" y="80" width="20" height="20" fill="#46E763"/>
<rect x="540" y="60" width="20" height="20" fill="#1E2A21"/>
<rect x="520" y="40" width="20" height="20" fill="#46E763"/>
<rect x="520" y="20" width="20" height="20" fill="#79EC89"/>
<rect x="360" width="20" height="20" fill="#1E2A21"/>
<rect x="360" y="240" width="20" height="20" fill="#1E2A21"/>
<rect x="360" y="220" width="20" height="20" fill="#2AA33B"/>
<rect x="340" y="200" width="20" height="20" fill="#33C94C"/>
<rect x="340" y="180" width="20" height="20" fill="#46E763"/>
<rect x="320" y="160" width="20" height="20" fill="#1E2A21"/>
<rect x="300" y="140" width="20" height="20" fill="#1E2A21"/>
<rect x="320" y="120" width="20" height="20" fill="#1E2A21"/>
<rect x="340" y="100" width="20" height="20" fill="#46E763"/>
<rect x="360" y="80" width="20" height="20" fill="#46E763"/>
<rect x="380" y="60" width="20" height="20" fill="#46E763"/>
<rect x="360" y="40" width="20" height="20" fill="#46E763"/>
<rect x="360" y="20" width="20" height="20" fill="#ACF3B4"/>
<rect x="680" width="20" height="20" fill="#1E2A21"/>
<rect x="680" y="240" width="20" height="20" fill="#1E2A21"/>
<rect x="680" y="220" width="20" height="20" fill="#2AA33B"/>
<rect x="660" y="200" width="20" height="20" fill="#33C94C"/>
<rect x="660" y="180" width="20" height="20" fill="#46E763"/>
<rect x="640" y="160" width="20" height="20" fill="#46E763"/>
<rect x="620" y="140" width="20" height="20" fill="#1E2A21"/>
<rect x="640" y="120" width="20" height="20" fill="#46E763"/>
<rect x="660" y="100" width="20" height="20" fill="#46E763"/>
<rect x="680" y="80" width="20" height="20" fill="#46E763"/>
<rect x="700" y="60" width="20" height="20" fill="#1E2A21"/>
<rect x="680" y="40" width="20" height="20" fill="#46E763"/>
<rect x="680" y="20" width="20" height="20" fill="#79EC89"/>
<rect x="160" width="20" height="20" fill="#1E2A21"/>
<rect x="160" y="240" width="20" height="20" fill="#1E2A21"/>
<rect x="160" y="220" width="20" height="20" fill="#2AA33B"/>
<rect x="140" y="200" width="20" height="20" fill="#33C94C"/>
<rect x="140" y="180" width="20" height="20" fill="#46E763"/>
<rect x="120" y="160" width="20" height="20" fill="#46E763"/>
<rect x="100" y="140" width="20" height="20" fill="#46E763"/>
<rect x="120" y="120" width="20" height="20" fill="#46E763"/>
<rect x="140" y="100" width="20" height="20" fill="#1D2820"/>
<rect x="160" y="80" width="20" height="20" fill="#1D2820"/>
<rect x="180" y="60" width="20" height="20" fill="#1D2820"/>
<rect x="160" y="40" width="20" height="20" fill="#46E763"/>
<rect x="160" y="20" width="20" height="20" fill="#79EC89"/>
<rect x="480" width="20" height="20" fill="#1E2A21"/>
<rect x="480" y="240" width="20" height="20" fill="#1E2A21"/>
<rect x="480" y="220" width="20" height="20" fill="#2AA33B"/>
<rect x="460" y="200" width="20" height="20" fill="#33C94C"/>
<rect x="460" y="180" width="20" height="20" fill="#46E763"/>
<rect x="440" y="160" width="20" height="20" fill="#46E763"/>
<rect x="420" y="140" width="20" height="20" fill="#1E2A21"/>
<rect x="440" y="120" width="20" height="20" fill="#46E763"/>
<rect x="460" y="100" width="20" height="20" fill="#46E763"/>
<rect x="480" y="80" width="20" height="20" fill="#1E2A21"/>
<rect x="500" y="60" width="20" height="20" fill="#46E763"/>
<rect x="480" y="40" width="20" height="20" fill="#46E763"/>
<rect x="480" y="20" width="20" height="20" fill="#79EC89"/>
<rect x="320" width="20" height="20" fill="#1E2A21"/>
<rect x="320" y="240" width="20" height="20" fill="#1E2A21"/>
<rect x="320" y="220" width="20" height="20" fill="#2AA33B"/>
<rect x="300" y="200" width="20" height="20" fill="#33C94C"/>
<rect x="300" y="180" width="20" height="20" fill="#1E2A21"/>
<rect x="280" y="160" width="20" height="20" fill="#46E763"/>
<rect x="260" y="140" width="20" height="20" fill="#46E763"/>
<rect x="280" y="120" width="20" height="20" fill="#46E763"/>
<rect x="300" y="100" width="20" height="20" fill="#1E2A21"/>
<rect x="320" y="80" width="20" height="20" fill="#1E2A21"/>
<rect x="340" y="60" width="20" height="20" fill="#1E2A21"/>
<rect x="320" y="40" width="20" height="20" fill="#46E763"/>
<rect x="320" y="20" width="20" height="20" fill="#ACF3B4"/>
<rect x="640" width="20" height="20" fill="#1E2A21"/>
<rect x="640" y="240" width="20" height="20" fill="#1E2A21"/>
<rect x="640" y="220" width="20" height="20" fill="#2AA33B"/>
<rect x="620" y="200" width="20" height="20" fill="#33C94C"/>
<rect x="620" y="180" width="20" height="20" fill="#1E2A21"/>
<rect x="600" y="160" width="20" height="20" fill="#46E763"/>
<rect x="580" y="140" width="20" height="20" fill="#46E763"/>
<rect x="600" y="120" width="20" height="20" fill="#1E2A21"/>
<rect x="620" y="100" width="20" height="20" fill="#1E2A21"/>
<rect x="640" y="80" width="20" height="20" fill="#46E763"/>
<rect x="660" y="60" width="20" height="20" fill="#1E2A21"/>
<rect x="640" y="40" width="20" height="20" fill="#46E763"/>
<rect x="640" y="20" width="20" height="20" fill="#79EC89"/>
<rect x="240" width="20" height="20" fill="#1E2A21"/>
<rect x="240" y="240" width="20" height="20" fill="#1E2A21"/>
<rect x="240" y="220" width="20" height="20" fill="#2AA33B"/>
<rect x="220" y="200" width="20" height="20" fill="#33C94C"/>
<rect x="220" y="180" width="20" height="20" fill="#46E763"/>
<rect x="200" y="160" width="20" height="20" fill="#46E763"/>
<rect x="180" y="140" width="20" height="20" fill="#46E763"/>
<rect x="200" y="120" width="20" height="20" fill="#1D2820"/>
<rect x="220" y="100" width="20" height="20" fill="#46E763"/>
<rect x="240" y="80" width="20" height="20" fill="#46E763"/>
<rect x="260" y="60" width="20" height="20" fill="#1E2A21"/>
<rect x="240" y="40" width="20" height="20" fill="#46E763"/>
<rect x="240" y="20" width="20" height="20" fill="#ACF3B4"/>
<rect x="560" width="20" height="20" fill="#1E2A21"/>
<rect x="560" y="240" width="20" height="20" fill="#1E2A21"/>
<rect x="560" y="220" width="20" height="20" fill="#2AA33B"/>
<rect x="540" y="200" width="20" height="20" fill="#33C94C"/>
<rect x="540" y="180" width="20" height="20" fill="#1E2A21"/>
<rect x="520" y="160" width="20" height="20" fill="#46E763"/>
<rect x="500" y="140" width="20" height="20" fill="#1E2A21"/>
<rect x="520" y="120" width="20" height="20" fill="#46E763"/>
<rect x="540" y="100" width="20" height="20" fill="#1E2A21"/>
<rect x="560" y="80" width="20" height="20" fill="#1E2A21"/>
<rect x="580" y="60" width="20" height="20" fill="#1E2A21"/>
<rect x="560" y="40" width="20" height="20" fill="#46E763"/>
<rect x="560" y="20" width="20" height="20" fill="#79EC89"/>
<rect x="400" width="20" height="20" fill="#1E2A21"/>
<rect x="400" y="240" width="20" height="20" fill="#1E2A21"/>
<rect x="400" y="220" width="20" height="20" fill="#2AA33B"/>
<rect x="380" y="200" width="20" height="20" fill="#33C94C"/>
<rect x="380" y="180" width="20" height="20" fill="#46E763"/>
<rect x="360" y="160" width="20" height="20" fill="#46E763"/>
<rect x="340" y="140" width="20" height="20" fill="#46E763"/>
<rect x="360" y="120" width="20" height="20" fill="#46E763"/>
<rect x="380" y="100" width="20" height="20" fill="#46E763"/>
<rect x="400" y="80" width="20" height="20" fill="#46E763"/>
<rect x="420" y="60" width="20" height="20" fill="#46E763"/>
<rect x="400" y="40" width="20" height="20" fill="#46E763"/>
<rect x="400" y="20" width="20" height="20" fill="#ACF3B4"/>
<rect x="720" width="20" height="20" fill="#1E2A21"/>
<rect x="720" y="240" width="20" height="20" fill="#1E2A21"/>
<rect x="720" y="220" width="20" height="20" fill="#2AA33B"/>
<rect x="700" y="200" width="20" height="20" fill="#33C94C"/>
<rect x="700" y="180" width="20" height="20" fill="#1E2A21"/>
<rect x="680" y="160" width="20" height="20" fill="#46E763"/>
<rect x="660" y="140" width="20" height="20" fill="#46E763"/>
<rect x="680" y="120" width="20" height="20" fill="#46E763"/>
<rect x="700" y="100" width="20" height="20" fill="#1E2A21"/>
<rect x="720" y="80" width="20" height="20" fill="#1E2A21"/>
<rect x="740" y="60" width="20" height="20" fill="#1E2A21"/>
<rect x="720" y="40" width="20" height="20" fill="#46E763"/>
<rect x="720" y="20" width="20" height="20" fill="#ACF3B4"/>
<rect x="760" width="20" height="20" fill="#1E2A21"/>
<rect x="760" y="240" width="20" height="20" fill="#1E2A21"/>
<rect x="760" y="220" width="20" height="20" fill="#2AA33B"/>
<rect x="740" y="200" width="20" height="20" fill="#33C94C"/>
<rect x="740" y="180" width="20" height="20" fill="#46E763"/>
<rect x="720" y="160" width="20" height="20" fill="#1E2A21"/>
<rect x="700" y="140" width="20" height="20" fill="#1E2A21"/>
<rect x="720" y="120" width="20" height="20" fill="#1E2A21"/>
<rect x="740" y="100" width="20" height="20" fill="#46E763"/>
<rect x="760" y="80" width="20" height="20" fill="#46E763"/>
<rect x="780" y="60" width="20" height="20" fill="#46E763"/>
<rect x="760" y="40" width="20" height="20" fill="#46E763"/>
<rect x="140" width="20" height="20" fill="#1E2A21"/>
<rect x="140" y="240" width="20" height="20" fill="#1E2A21"/>
<rect x="140" y="220" width="20" height="20" fill="#2AA33B"/>
<rect x="120" y="200" width="20" height="20" fill="#33C94C"/>
<rect x="120" y="180" width="20" height="20" fill="#46E763"/>
<rect x="100" y="160" width="20" height="20" fill="#46E763"/>
<rect x="80" y="140" width="20" height="20" fill="#46E763"/>
<rect x="100" y="120" width="20" height="20" fill="#46E763"/>
<rect x="120" y="100" width="20" height="20" fill="#46E763"/>
<rect x="140" y="80" width="20" height="20" fill="#1D2820"/>
<rect x="160" y="60" width="20" height="20" fill="#1D2820"/>
<rect x="140" y="40" width="20" height="20" fill="#46E763"/>
<rect x="140" y="20" width="20" height="20" fill="#79EC89"/>
<rect x="460" width="20" height="20" fill="#1E2A21"/>
<rect x="460" y="240" width="20" height="20" fill="#1E2A21"/>
<rect x="460" y="220" width="20" height="20" fill="#2AA33B"/>
<rect x="440" y="200" width="20" height="20" fill="#33C94C"/>
<rect x="440" y="180" width="20" height="20" fill="#46E763"/>
<rect x="420" y="160" width="20" height="20" fill="#1E2A21"/>
<rect x="400" y="140" width="20" height="20" fill="#1E2A21"/>
<rect x="420" y="120" width="20" height="20" fill="#1E2A21"/>
<rect x="440" y="100" width="20" height="20" fill="#46E763"/>
<rect x="460" y="80" width="20" height="20" fill="#1E2A21"/>
<rect x="480" y="60" width="20" height="20" fill="#46E763"/>
<rect x="460" y="40" width="20" height="20" fill="#46E763"/>
<rect x="460" y="20" width="20" height="20" fill="#ACF3B4"/>
<rect x="300" width="20" height="20" fill="#1E2A21"/>
<rect x="300" y="240" width="20" height="20" fill="#1E2A21"/>
<rect x="300" y="220" width="20" height="20" fill="#2AA33B"/>
<rect x="280" y="200" width="20" height="20" fill="#33C94C"/>
<rect x="280" y="180" width="20" height="20" fill="#46E763"/>
<rect x="260" y="160" width="20" height="20" fill="#46E763"/>
<rect x="240" y="140" width="20" height="20" fill="#46E763"/>
<rect x="260" y="120" width="20" height="20" fill="#46E763"/>
<rect x="280" y="100" width="20" height="20" fill="#46E763"/>
<rect x="300" y="80" width="20" height="20" fill="#1E2A21"/>
<rect x="320" y="60" width="20" height="20" fill="#1E2A21"/>
<rect x="300" y="40" width="20" height="20" fill="#46E763"/>
<rect x="300" y="20" width="20" height="20" fill="#ACF3B4"/>
<rect x="620" width="20" height="20" fill="#1E2A21"/>
<rect x="620" y="240" width="20" height="20" fill="#1E2A21"/>
<rect x="620" y="220" width="20" height="20" fill="#2AA33B"/>
<rect x="600" y="200" width="20" height="20" fill="#33C94C"/>
<rect x="600" y="180" width="20" height="20" fill="#46E763"/>
<rect x="580" y="160" width="20" height="20" fill="#46E763"/>
<rect x="560" y="140" width="20" height="20" fill="#1E2A21"/>
<rect x="580" y="120" width="20" height="20" fill="#1E2A21"/>
<rect x="600" y="100" width="20" height="20" fill="#46E763"/>
<rect x="620" y="80" width="20" height="20" fill="#1E2A21"/>
<rect x="640" y="60" width="20" height="20" fill="#46E763"/>
<rect x="620" y="40" width="20" height="20" fill="#46E763"/>
<rect x="620" y="20" width="20" height="20" fill="#ACF3B4"/>
<rect x="220" width="20" height="20" fill="#1E2A21"/>
<rect x="220" y="240" width="20" height="20" fill="#1E2A21"/>
<rect x="220" y="220" width="20" height="20" fill="#2AA33B"/>
<rect x="200" y="200" width="20" height="20" fill="#33C94C"/>
<rect x="200" y="180" width="20" height="20" fill="#1D2820"/>
<rect x="180" y="160" width="20" height="20" fill="#46E763"/>
<rect x="160" y="140" width="20" height="20" fill="#46E763"/>
<rect x="180" y="120" width="20" height="20" fill="#1D2820"/>
<rect x="200" y="100" width="20" height="20" fill="#46E763"/>
<rect x="220" y="80" width="20" height="20" fill="#1D2820"/>
<rect x="240" y="60" width="20" height="20" fill="#46E763"/>
<rect x="220" y="40" width="20" height="20" fill="#46E763"/>
<rect x="220" y="20" width="20" height="20" fill="#ACF3B4"/>
<rect x="540" width="20" height="20" fill="#1E2A21"/>
<rect x="540" y="240" width="20" height="20" fill="#1E2A21"/>
<rect x="540" y="220" width="20" height="20" fill="#2AA33B"/>
<rect x="520" y="200" width="20" height="20" fill="#33C94C"/>
<rect x="520" y="180" width="20" height="20" fill="#46E763"/>
<rect x="500" y="160" width="20" height="20" fill="#1E2A21"/>
<rect x="480" y="140" width="20" height="20" fill="#1E2A21"/>
<rect x="500" y="120" width="20" height="20" fill="#1E2A21"/>
<rect x="520" y="100" width="20" height="20" fill="#46E763"/>
<rect x="540" y="80" width="20" height="20" fill="#1E2A21"/>
<rect x="560" y="60" width="20" height="20" fill="#1E2A21"/>
<rect x="540" y="40" width="20" height="20" fill="#46E763"/>
<rect x="540" y="20" width="20" height="20" fill="#79EC89"/>
<rect x="380" width="20" height="20" fill="#1E2A21"/>
<rect x="380" y="240" width="20" height="20" fill="#1E2A21"/>
<rect x="380" y="220" width="20" height="20" fill="#2AA33B"/>
<rect x="360" y="200" width="20" height="20" fill="#33C94C"/>
<rect x="360" y="180" width="20" height="20" fill="#46E763"/>
<rect x="340" y="160" width="20" height="20" fill="#46E763"/>
<rect x="320" y="140" width="20" height="20" fill="#1E2A21"/>
<rect x="340" y="120" width="20" height="20" fill="#46E763"/>
<rect x="360" y="100" width="20" height="20" fill="#46E763"/>
<rect x="380" y="80" width="20" height="20" fill="#46E763"/>
<rect x="400" y="60" width="20" height="20" fill="#46E763"/>
<rect x="380" y="40" width="20" height="20" fill="#46E763"/>
<rect x="380" y="20" width="20" height="20" fill="#ACF3B4"/>
<rect x="700" width="20" height="20" fill="#1E2A21"/>
<rect x="700" y="240" width="20" height="20" fill="#1E2A21"/>
<rect x="700" y="220" width="20" height="20" fill="#2AA33B"/>
<rect x="680" y="200" width="20" height="20" fill="#33C94C"/>
<rect x="680" y="180" width="20" height="20" fill="#46E763"/>
<rect x="660" y="160" width="20" height="20" fill="#46E763"/>
<rect x="640" y="140" width="20" height="20" fill="#46E763"/>
<rect x="660" y="120" width="20" height="20" fill="#46E763"/>
<rect x="680" y="100" width="20" height="20" fill="#46E763"/>
<rect x="700" y="80" width="20" height="20" fill="#1E2A21"/>
<rect x="720" y="60" width="20" height="20" fill="#1E2A21"/>
<rect x="700" y="40" width="20" height="20" fill="#46E763"/>
<rect x="700" y="20" width="20" height="20" fill="#ACF3B4"/>
<rect x="800" y="200" width="20" height="20" fill="#2AA33B"/>
<rect x="820" y="180" width="20" height="20" fill="#2AA33B"/>
<rect x="840" y="160" width="20" height="20" fill="#2AA33B"/>
<rect x="860" y="140" width="20" height="20" fill="#2AA33B"/>
<rect x="880" y="120" width="20" height="20" fill="#2AA33B"/>
<rect x="180" width="20" height="20" fill="#1E2A21"/>
<rect x="180" y="240" width="20" height="20" fill="#1E2A21"/>
<rect x="180" y="220" width="20" height="20" fill="#2AA33B"/>
<rect x="160" y="200" width="20" height="20" fill="#33C94C"/>
<rect x="160" y="180" width="20" height="20" fill="#1D2820"/>
<rect x="140" y="160" width="20" height="20" fill="#1D2820"/>
<rect x="120" y="140" width="20" height="20" fill="#46E763"/>
<rect x="140" y="120" width="20" height="20" fill="#46E763"/>
<rect x="160" y="100" width="20" height="20" fill="#1D2820"/>
<rect x="180" y="80" width="20" height="20" fill="#46E763"/>
<rect x="200" y="60" width="20" height="20" fill="#1D2820"/>
<rect x="180" y="40" width="20" height="20" fill="#46E763"/>
<rect x="180" y="20" width="20" height="20" fill="#79EC89"/>
<rect x="500" width="20" height="20" fill="#1E2A21"/>
<rect x="500" y="240" width="20" height="20" fill="#1E2A21"/>
<rect x="500" y="220" width="20" height="20" fill="#2AA33B"/>
<rect x="480" y="200" width="20" height="20" fill="#33C94C"/>
<rect x="480" y="180" width="20" height="20" fill="#1E2A21"/>
<rect x="460" y="160" width="20" height="20" fill="#46E763"/>
<rect x="440" y="140" width="20" height="20" fill="#1E2A21"/>
<rect x="460" y="120" width="20" height="20" fill="#46E763"/>
<rect x="480" y="100" width="20" height="20" fill="#1E2A21"/>
<rect x="500" y="80" width="20" height="20" fill="#46E763"/>
<rect x="520" y="60" width="20" height="20" fill="#46E763"/>
<rect x="500" y="40" width="20" height="20" fill="#46E763"/>
<rect x="500" y="20" width="20" height="20" fill="#79EC89"/>
<rect x="340" width="20" height="20" fill="#1E2A21"/>
<rect x="340" y="240" width="20" height="20" fill="#1E2A21"/>
<rect x="340" y="220" width="20" height="20" fill="#2AA33B"/>
<rect x="320" y="200" width="20" height="20" fill="#33C94C"/>
<rect x="320" y="180" width="20" height="20" fill="#1E2A21"/>
<rect x="300" y="160" width="20" height="20" fill="#1E2A21"/>
<rect x="280" y="140" width="20" height="20" fill="#46E763"/>
<rect x="300" y="120" width="20" height="20" fill="#1E2A21"/>
<rect x="320" y="100" width="20" height="20" fill="#1E2A21"/>
<rect x="340" y="80" width="20" height="20" fill="#46E763"/>
<rect x="360" y="60" width="20" height="20" fill="#1E2A21"/>
<rect x="340" y="40" width="20" height="20" fill="#46E763"/>
<rect x="340" y="20" width="20" height="20" fill="#ACF3B4"/>
<rect x="660" width="20" height="20" fill="#1E2A21"/>
<rect x="660" y="240" width="20" height="20" fill="#1E2A21"/>
<rect x="660" y="220" width="20" height="20" fill="#2AA33B"/>
<rect x="640" y="200" width="20" height="20" fill="#33C94C"/>
<rect x="640" y="180" width="20" height="20" fill="#46E763"/>
<rect x="620" y="160" width="20" height="20" fill="#1E2A21"/>
<rect x="600" y="140" width="20" height="20" fill="#46E763"/>
<rect x="620" y="120" width="20" height="20" fill="#46E763"/>
<rect x="640" y="100" width="20" height="20" fill="#46E763"/>
<rect x="660" y="80" width="20" height="20" fill="#46E763"/>
<rect x="680" y="60" width="20" height="20" fill="#1E2A21"/>
<rect x="660" y="40" width="20" height="20" fill="#46E763"/>
<rect x="660" y="20" width="20" height="20" fill="#79EC89"/>
<rect x="260" width="20" height="20" fill="#1E2A21"/>
<rect x="260" y="240" width="20" height="20" fill="#1E2A21"/>
<rect x="260" y="220" width="20" height="20" fill="#2AA33B"/>
<rect x="240" y="200" width="20" height="20" fill="#33C94C"/>
<rect x="240" y="180" width="20" height="20" fill="#46E763"/>
<rect x="220" y="160" width="20" height="20" fill="#1D2820"/>
<rect x="200" y="140" width="20" height="20" fill="#46E763"/>
<rect x="220" y="120" width="20" height="20" fill="#46E763"/>
<rect x="240" y="100" width="20" height="20" fill="#46E763"/>
<rect x="260" y="80" width="20" height="20" fill="#46E763"/>
<rect x="280" y="60" width="20" height="20" fill="#1E2A21"/>
<rect x="260" y="40" width="20" height="20" fill="#46E763"/>
<rect x="260" y="20" width="20" height="20" fill="#ACF3B4"/>
<rect x="580" width="20" height="20" fill="#1E2A21"/>
<rect x="580" y="240" width="20" height="20" fill="#1E2A21"/>
<rect x="580" y="220" width="20" height="20" fill="#2AA33B"/>
<rect x="560" y="200" width="20" height="20" fill="#33C94C"/>
<rect x="560" y="180" width="20" height="20" fill="#1E2A21"/>
<rect x="540" y="160" width="20" height="20" fill="#1E2A21"/>
<rect x="520" y="140" width="20" height="20" fill="#46E763"/>
<rect x="540" y="120" width="20" height="20" fill="#1E2A21"/>
<rect x="560" y="100" width="20" height="20" fill="#1E2A21"/>
<rect x="580" y="80" width="20" height="20" fill="#46E763"/>
<rect x="600" y="60" width="20" height="20" fill="#1E2A21"/>
<rect x="580" y="40" width="20" height="20" fill="#46E763"/>
<rect x="580" y="20" width="20" height="20" fill="#79EC89"/>
<rect x="420" width="20" height="20" fill="#1E2A21"/>
<rect x="420" y="240" width="20" height="20" fill="#1E2A21"/>
<rect x="420" y="220" width="20" height="20" fill="#2AA33B"/>
<rect x="400" y="200" width="20" height="20" fill="#33C94C"/>
<rect x="400" y="180" width="20" height="20" fill="#1E2A21"/>
<rect x="380" y="160" width="20" height="20" fill="#46E763"/>
<rect x="360" y="140" width="20" height="20" fill="#46E763"/>
<rect x="380" y="120" width="20" height="20" fill="#46E763"/>
<rect x="400" y="100" width="20" height="20" fill="#1E2A21"/>
<rect x="420" y="80" width="20" height="20" fill="#1E2A21"/>
<rect x="440" y="60" width="20" height="20" fill="#1E2A21"/>
<rect x="420" y="40" width="20" height="20" fill="#46E763"/>
<rect x="420" y="20" width="20" height="20" fill="#ACF3B4"/>
<rect x="740" width="20" height="20" fill="#1E2A21"/>
<rect x="740" y="240" width="20" height="20" fill="#1E2A21"/>
<rect x="740" y="220" width="20" height="20" fill="#2AA33B"/>
<rect x="720" y="200" width="20" height="20" fill="#33C94C"/>
<rect x="720" y="180" width="20" height="20" fill="#1E2A21"/>
<rect x="700" y="160" width="20" height="20" fill="#1E2A21"/>
<rect x="680" y="140" width="20" height="20" fill="#46E763"/>
<rect x="700" y="120" width="20" height="20" fill="#1E2A21"/>
<rect x="720" y="100" width="20" height="20" fill="#1E2A21"/>
<rect x="740" y="80" width="20" height="20" fill="#46E763"/>
<rect x="760" y="60" width="20" height="20" fill="#1E2A21"/>
<rect x="740" y="40" width="20" height="20" fill="#46E763"/>
<rect x="740" y="20" width="20" height="20" fill="#79EC89"/>
<rect x="760" y="20" width="20" height="20" fill="#79EC89"/>
<rect x="780" y="20" width="20" height="20" fill="#79EC89"/>
<rect x="780" width="20" height="20" fill="#1E2A21"/>
<rect x="780" y="240" width="20" height="20" fill="#1E2A21"/>
<rect x="780" y="220" width="20" height="20" fill="#2AA33B"/>
<rect x="760" y="200" width="20" height="20" fill="#33C94C"/>
<rect x="760" y="180" width="20" height="20" fill="#46E763"/>
<rect x="740" y="160" width="20" height="20" fill="#46E763"/>
<rect x="720" y="140" width="20" height="20" fill="#1E2A21"/>
<rect x="740" y="120" width="20" height="20" fill="#46E763"/>
<rect x="760" y="100" width="20" height="20" fill="#46E763"/>
<rect x="780" y="80" width="20" height="20" fill="#46E763"/>
<rect x="800" y="60" width="20" height="20" fill="#46E763"/>
<rect x="780" y="40" width="20" height="20" fill="#46E763"/>
<rect x="780" y="200" width="20" height="20" fill="#33C94C"/>
<rect x="780" y="180" width="20" height="20" fill="#46E763"/>
<rect x="760" y="160" width="20" height="20" fill="#46E763"/>
<rect x="740" y="140" width="20" height="20" fill="#46E763"/>
<rect x="760" y="120" width="20" height="20" fill="#46E763"/>
<rect x="800" y="160" width="20" height="20" fill="#46E763"/>
<rect x="780" y="160" width="20" height="20" fill="#46E763"/>
<rect x="780" y="140" width="20" height="20" fill="#46E763"/>
<rect x="760" y="140" width="20" height="20" fill="#46E763"/>
<rect x="780" y="100" width="20" height="20" fill="#46E763"/>
<rect x="820" y="140" width="20" height="20" fill="#46E763"/>
<rect x="800" y="140" width="20" height="20" fill="#46E763"/>
<rect x="800" y="120" width="20" height="20" fill="#46E763"/>
<rect x="780" y="120" width="20" height="20" fill="#46E763"/>
<rect x="800" y="80" width="20" height="20" fill="#46E763"/>
<rect x="840" y="120" width="20" height="20" fill="#46E763"/>
<rect x="820" y="120" width="20" height="20" fill="#46E763"/>
<rect x="820" y="100" width="20" height="20" fill="#46E763"/>
<rect x="800" y="100" width="20" height="20" fill="#46E763"/>
<rect x="820" y="60" width="20" height="20" fill="#46E763"/>
<rect x="860" y="100" width="20" height="20" fill="#46E763"/>
<rect x="840" y="100" width="20" height="20" fill="#46E763"/>
<rect x="840" y="80" width="20" height="20" fill="#46E763"/>
<rect x="820" y="80" width="20" height="20" fill="#46E763"/>
<rect x="800" y="40" width="20" height="20" fill="#46E763"/>
<rect x="800" y="180" width="20" height="20" fill="#33C94C"/>
<rect x="820" y="160" width="20" height="20" fill="#33C94C"/>
<rect x="840" y="140" width="20" height="20" fill="#33C94C"/>
<rect x="860" y="120" width="20" height="20" fill="#33C94C"/>
</svg>
